<?xml version="1.0" encoding="utf-8"?>
<!-- Generator: Adobe Illustrator 17.0.0, SVG Export Plug-In . SVG Version: 6.00 Build 0)  -->
<!DOCTYPE svg PUBLIC "-//W3C//DTD SVG 1.1//EN" "http://www.w3.org/Graphics/SVG/1.1/DTD/svg11.dtd">
<svg version="1.1" id="Capa_1" xmlns="http://www.w3.org/2000/svg" xmlns:xlink="http://www.w3.org/1999/xlink" x="0px" y="0px"
	 width="18px" height="64.52px" viewBox="0.67 -39.427 18 64.52" enable-background="new 0.67 -39.427 18 64.52"
	 xml:space="preserve">
<g>
	<path fill="#666666" d="M17.877,0.901H1.464c-0.439,0-0.794,0.356-0.794,0.794v22.603c0,0.439,0.355,0.795,0.794,0.795H13.64
		c0.195,0,0.384-0.072,0.53-0.203l4.235-3.79c0.168-0.151,0.265-0.367,0.265-0.592V1.695C18.67,1.257,18.315,0.901,17.877,0.901z
		 M17.083,20.064h-3.695v3.395l-0.049,0.044H2.259V2.49h14.824V20.064z"/>
	<path fill="#666666" d="M11.127,15.022H7.091c-0.23,0-0.415,0.186-0.415,0.415v4.036c0,0.23,0.185,0.415,0.415,0.415h4.036
		c0.229,0,0.415-0.186,0.415-0.415v-4.035C11.543,15.209,11.356,15.022,11.127,15.022z M10.713,19.059H7.506v-3.207h3.207V19.059z"
		/>
	<path fill="#666666" d="M11.49,8.876v-0.03c0-0.203-0.165-0.367-0.367-0.367h-4.03c-0.202,0-0.367,0.164-0.367,0.367v4.029
		c0,0.204,0.165,0.368,0.367,0.368h4.031c0.202,0,0.367-0.164,0.367-0.368v-1.436l-0.648,0.648
		c-0.024,0.024-0.058,0.036-0.086,0.058v0.366H7.461V9.212h3.297v0.396L11.49,8.876z"/>
	<path fill="#666666" d="M12.246,8.638l-2.044,2.043L9.421,9.898c-0.211-0.211-0.552-0.211-0.763,0
		c-0.211,0.211-0.211,0.553,0,0.762l1.164,1.165c0.105,0.105,0.244,0.158,0.382,0.158c0.139,0,0.277-0.053,0.382-0.158L13.009,9.4
		c0.212-0.211,0.212-0.552,0-0.763C12.799,8.426,12.457,8.426,12.246,8.638z"/>
	<rect x="4.373" y="4.772" fill="#666666" width="10.596" height="1.107"/>
</g>
<path fill="#FF8A29" d="M17.877-39.427H1.464c-0.439,0-0.794,0.356-0.794,0.794v22.603c0,0.439,0.355,0.795,0.794,0.795H13.64
	c0.195,0,0.384-0.072,0.53-0.203l4.235-3.79c0.168-0.151,0.265-0.367,0.265-0.592v-18.813C18.67-39.071,18.315-39.427,17.877-39.427
	z M17.083-20.264h-3.695v3.395l-0.049,0.044H2.259v-21.013h14.824V-20.264z"/>
<path fill="#FFEE50" d="M11.127-25.306H7.091c-0.23,0-0.415,0.186-0.415,0.415v4.036c0,0.23,0.185,0.415,0.415,0.415h4.036
	c0.229,0,0.415-0.186,0.415-0.415v-4.035C11.543-25.119,11.356-25.306,11.127-25.306z M10.713-21.269H7.506v-3.207h3.207V-21.269z"
	/>
<path fill="#FFEE50" d="M11.49-31.452v-0.03c0-0.203-0.165-0.367-0.367-0.367h-4.03c-0.202,0-0.367,0.164-0.367,0.367v4.029
	c0,0.204,0.165,0.368,0.367,0.368h4.031c0.202,0,0.367-0.164,0.367-0.368v-1.436l-0.648,0.648c-0.024,0.024-0.058,0.036-0.086,0.058
	v0.366H7.461v-3.298h3.297v0.396L11.49-31.452z"/>
<path fill="#FFEE50" d="M12.246-31.69l-2.044,2.043L9.421-30.43c-0.211-0.211-0.552-0.211-0.763,0c-0.211,0.211-0.211,0.553,0,0.762
	l1.164,1.165c0.105,0.105,0.244,0.158,0.382,0.158c0.139,0,0.277-0.053,0.382-0.158l2.424-2.425c0.212-0.211,0.212-0.552,0-0.763
	C12.799-31.901,12.457-31.901,12.246-31.69z"/>
<rect x="4.373" y="-35.556" fill="#FFEE50" width="10.596" height="1.107"/>
</svg>
