<?xml version="1.0" encoding="utf-8"?>
<!-- Generator: Adobe Illustrator 17.0.0, SVG Export Plug-In . SVG Version: 6.00 Build 0)  -->
<!DOCTYPE svg PUBLIC "-//W3C//DTD SVG 1.1//EN" "http://www.w3.org/Graphics/SVG/1.1/DTD/svg11.dtd">
<svg version="1.1" id="Capa_1" xmlns="http://www.w3.org/2000/svg" xmlns:xlink="http://www.w3.org/1999/xlink" x="0px" y="0px"
	 width="9.094px" height="62.644px" viewBox="416.562 517.8 9.094 62.644" enable-background="new 416.562 517.8 9.094 62.644"
	 xml:space="preserve">
<g>
	<path fill="#999999" d="M425.656,568.994c0-2.04-1.901-3.7-4.237-3.7s-4.237,1.66-4.237,3.7v8.718c0,0.738,0.33,1.429,0.93,1.946
		c0.587,0.506,1.363,0.785,2.185,0.785c1.718,0,3.115-1.225,3.115-2.732v-7.749c0.003-0.478-0.209-0.927-0.597-1.264
		c-0.364-0.316-0.859-0.49-1.396-0.49c-0.536,0-1.032,0.174-1.396,0.49c-0.388,0.337-0.6,0.787-0.597,1.268v6.777
		c0,0.438,0.391,0.794,0.871,0.794s0.871-0.356,0.871-0.794v-6.781c0-0.042,0.019-0.079,0.057-0.113
		c0.044-0.038,0.117-0.061,0.194-0.061c0.077,0,0.15,0.023,0.195,0.062c0.025,0.022,0.056,0.059,0.056,0.108v7.753
		c0,0.63-0.616,1.143-1.373,1.143c-0.757,0-1.373-0.513-1.373-1.143v-8.718c0-1.164,1.119-2.112,2.495-2.112
		s2.495,0.947,2.495,2.112v6.781c0,0.438,0.391,0.794,0.871,0.794s0.871-0.356,0.871-0.794L425.656,568.994L425.656,568.994z"/>
</g>
<g>
	<path fill="#FCFCFC" d="M425.036,521.5c0-2.04-1.901-3.7-4.237-3.7s-4.237,1.66-4.237,3.7v8.718c0,0.738,0.33,1.429,0.93,1.946
		c0.587,0.506,1.363,0.785,2.185,0.785c1.718,0,3.115-1.225,3.115-2.732v-7.749c0.003-0.478-0.209-0.927-0.597-1.264
		c-0.364-0.316-0.859-0.49-1.396-0.49c-0.536,0-1.032,0.174-1.396,0.49c-0.388,0.337-0.6,0.787-0.597,1.268v6.777
		c0,0.438,0.391,0.794,0.871,0.794s0.871-0.356,0.871-0.794v-6.781c0-0.042,0.019-0.079,0.057-0.113
		c0.044-0.038,0.117-0.061,0.194-0.061c0.077,0,0.15,0.023,0.195,0.062c0.025,0.022,0.056,0.059,0.056,0.108v7.753
		c0,0.63-0.616,1.143-1.373,1.143s-1.373-0.513-1.373-1.143V521.5c0-1.164,1.119-2.112,2.495-2.112s2.495,0.947,2.495,2.112v6.781
		c0,0.438,0.391,0.794,0.871,0.794s0.871-0.356,0.871-0.794L425.036,521.5L425.036,521.5z"/>
</g>
</svg>
