<?xml version="1.0" encoding="utf-8"?>
<!-- Generator: Adobe Illustrator 17.0.0, SVG Export Plug-In . SVG Version: 6.00 Build 0)  -->
<!DOCTYPE svg PUBLIC "-//W3C//DTD SVG 1.1//EN" "http://www.w3.org/Graphics/SVG/1.1/DTD/svg11.dtd">
<svg version="1.1" id="Capa_1" xmlns="http://www.w3.org/2000/svg" xmlns:xlink="http://www.w3.org/1999/xlink" x="0px" y="0px"
	 width="52.5px" height="23.47px" viewBox="8.75 8.336 52.5 23.47" enable-background="new 8.75 8.336 52.5 23.47"
	 xml:space="preserve">
<g>
	<path fill="#A8A8A8" d="M24.761,11.419H23.22c-0.22,0-0.398-0.178-0.398-0.398v-0.696c0-1.096-0.892-1.989-1.989-1.989h-6.166
		c-1.096,0-1.989,0.892-1.989,1.989v0.696c0,0.22-0.178,0.398-0.398,0.398h-1.541c-1.098,0-1.989,0.89-1.989,1.989v1.889
		c0,0.22,0.178,0.398,0.398,0.398h17.205c0.22,0,0.398-0.178,0.398-0.398v-1.889C26.75,12.309,25.86,11.419,24.761,11.419z
		 M21.231,11.021c0,0.22-0.177,0.398-0.398,0.398h-6.166c-0.22,0-0.398-0.178-0.398-0.398v-0.696c0-0.22,0.179-0.398,0.398-0.398
		h6.166c0.22,0,0.398,0.178,0.398,0.398V11.021z"/>
	<path fill="#A8A8A8" d="M24.663,16.69H10.839c-0.22,0-0.398,0.178-0.398,0.398v12.729c0,1.099,0.89,1.989,1.989,1.989h10.641
		c1.099,0,1.989-0.89,1.989-1.989V17.088C25.06,16.867,24.882,16.69,24.663,16.69z M14.518,29.021c0,0.439-0.356,0.795-0.795,0.795
		s-0.795-0.356-0.795-0.795v-9.846c0-0.439,0.356-0.795,0.795-0.795s0.795,0.356,0.795,0.795V29.021z M18.546,29.021
		c0,0.439-0.356,0.795-0.795,0.795c-0.439,0-0.795-0.356-0.795-0.795v-9.846c0-0.439,0.356-0.795,0.795-0.795
		s0.795,0.356,0.795,0.795V29.021z M22.573,29.021c0,0.439-0.356,0.795-0.795,0.795c-0.439,0-0.795-0.356-0.795-0.795v-9.846
		c0-0.439,0.356-0.795,0.795-0.795c0.439,0,0.795,0.356,0.795,0.795V29.021z"/>
</g>
<g>
	<path fill="#9F4DFF" d="M59.261,11.419H57.72c-0.22,0-0.398-0.178-0.398-0.398v-0.696c0-1.096-0.892-1.989-1.989-1.989h-6.166
		c-1.096,0-1.989,0.892-1.989,1.989v0.696c0,0.22-0.178,0.398-0.398,0.398h-1.541c-1.098,0-1.989,0.89-1.989,1.989v1.889
		c0,0.22,0.178,0.398,0.398,0.398h17.205c0.22,0,0.398-0.178,0.398-0.398v-1.889C61.25,12.309,60.36,11.419,59.261,11.419z
		 M55.731,11.021c0,0.22-0.177,0.398-0.398,0.398h-6.166c-0.22,0-0.398-0.178-0.398-0.398v-0.696c0-0.22,0.179-0.398,0.398-0.398
		h6.166c0.22,0,0.398,0.178,0.398,0.398V11.021z"/>
	<path fill="#5A9DFF" d="M59.163,16.69H45.339c-0.22,0-0.398,0.178-0.398,0.398v12.729c0,1.099,0.89,1.989,1.989,1.989h10.641
		c1.099,0,1.989-0.89,1.989-1.989V17.088C59.56,16.867,59.382,16.69,59.163,16.69z M49.018,29.021c0,0.439-0.356,0.795-0.795,0.795
		c-0.439,0-0.795-0.356-0.795-0.795v-9.846c0-0.439,0.356-0.795,0.795-0.795c0.439,0,0.795,0.356,0.795,0.795V29.021z
		 M53.046,29.021c0,0.439-0.356,0.795-0.795,0.795c-0.439,0-0.795-0.356-0.795-0.795v-9.846c0-0.439,0.356-0.795,0.795-0.795
		c0.439,0,0.795,0.356,0.795,0.795V29.021z M57.073,29.021c0,0.439-0.356,0.795-0.795,0.795c-0.439,0-0.795-0.356-0.795-0.795
		v-9.846c0-0.439,0.356-0.795,0.795-0.795c0.439,0,0.795,0.356,0.795,0.795V29.021z"/>
</g>
</svg>
