<?xml version="1.0" encoding="utf-8"?>
<!-- Generator: Adobe Illustrator 17.0.0, SVG Export Plug-In . SVG Version: 6.00 Build 0)  -->
<!DOCTYPE svg PUBLIC "-//W3C//DTD SVG 1.1//EN" "http://www.w3.org/Graphics/SVG/1.1/DTD/svg11.dtd">
<svg version="1.1" id="Capa_1" xmlns="http://www.w3.org/2000/svg" xmlns:xlink="http://www.w3.org/1999/xlink" x="0px" y="0px"
	 width="15px" height="54.867px" viewBox="100.5 24.484 15 54.867" enable-background="new 100.5 24.484 15 54.867"
	 xml:space="preserve">
<path fill="#A5A5A5" d="M113,35.538c0,0.799-0.609,1.447-1.361,1.447h-7.279c-0.751,0-1.361-0.648-1.361-1.447v-7.107
	c0-0.799,0.609-1.447,1.361-1.447h7.279c0.751,0,1.361,0.648,1.361,1.447V35.538z"/>
<g>
	<path fill="#3799E2" d="M114,75.49c0,0.959-0.731,1.736-1.633,1.736h-8.735c-0.902,0-1.633-0.777-1.633-1.736v-8.528
		c0-0.959,0.731-1.736,1.633-1.736h8.735c0.902,0,1.633,0.777,1.633,1.736V75.49z"/>
	<path fill="#F9F9F9" d="M112.55,68.508l-0.731-0.731c-0.106-0.106-0.233-0.159-0.379-0.159c-0.146,0-0.272,0.053-0.379,0.159
		l-4.299,4.299l-1.748-1.748c-0.106-0.106-0.233-0.159-0.379-0.159c-0.146,0-0.272,0.053-0.379,0.159l-0.731,0.731
		c-0.106,0.106-0.16,0.233-0.16,0.379c0,0.146,0.053,0.272,0.16,0.379l2.857,2.857c0.106,0.106,0.233,0.16,0.379,0.16
		c0.146,0,0.272-0.053,0.379-0.16l5.409-5.409c0.106-0.106,0.16-0.233,0.16-0.379C112.709,68.741,112.656,68.614,112.55,68.508z"/>
</g>
</svg>
