<?xml version="1.0" encoding="utf-8"?>
<!-- Generator: Adobe Illustrator 17.0.0, SVG Export Plug-In . SVG Version: 6.00 Build 0)  -->
<!DOCTYPE svg PUBLIC "-//W3C//DTD SVG 1.1//EN" "http://www.w3.org/Graphics/SVG/1.1/DTD/svg11.dtd">
<svg version="1.1" id="Capa_1" xmlns="http://www.w3.org/2000/svg" xmlns:xlink="http://www.w3.org/1999/xlink" x="0px" y="0px"
	 width="53px" height="19.184px" viewBox="6.771 6.612 53 19.184" enable-background="new 6.771 6.612 53 19.184"
	 xml:space="preserve">
<path fill="#BCBAAA" d="M22.256,18.551v-3.87c-0.012-2.985-1.986-5.838-4.938-6.564c0,0-0.097-1.505-1.547-1.505
	c-1.473,0-1.546,1.462-1.546,1.462c-2.952,0.722-4.901,3.621-4.918,6.606v3.747c0,1.832-1.16,2.146-2.536,3.638h18
	C23.396,20.574,22.256,20.383,22.256,18.551z M15.77,25.797c1.581,0,2.903-1.309,3.26-2.985h-6.52
	C12.868,24.487,14.191,25.797,15.77,25.797z"/>
<path fill="#00E2B7" d="M57.256,18.551v-3.87c-0.012-2.985-1.986-5.838-4.938-6.564c0,0-0.097-1.505-1.547-1.505
	c-1.473,0-1.546,1.462-1.546,1.462c-2.952,0.722-4.901,3.621-4.918,6.606v3.747c0,1.832-1.16,2.146-2.536,3.638h18
	C58.396,20.574,57.256,20.383,57.256,18.551z M50.77,25.797c1.581,0,2.903-1.309,3.26-2.985h-6.52
	C47.868,24.487,49.191,25.797,50.77,25.797z"/>
</svg>
