<?xml version="1.0" encoding="utf-8"?>
<!-- Generator: Adobe Illustrator 17.0.0, SVG Export Plug-In . SVG Version: 6.00 Build 0)  -->
<!DOCTYPE svg PUBLIC "-//W3C//DTD SVG 1.1//EN" "http://www.w3.org/Graphics/SVG/1.1/DTD/svg11.dtd">
<svg version="1.1" id="icon" xmlns="http://www.w3.org/2000/svg" xmlns:xlink="http://www.w3.org/1999/xlink" x="0px" y="0px"
	 width="18.212px" height="49.691px" viewBox="503.001 471.309 18.212 49.691"
	 enable-background="new 503.001 471.309 18.212 49.691" xml:space="preserve">
<path id="settings_1_" fill="#666666" d="M520.343,510.689l-1.783-0.297c-0.13-0.53-0.319-1.036-0.565-1.509l1.141-1.415
	c0.243-0.299,0.232-0.729-0.024-1.018l-0.709-0.798c-0.257-0.288-0.683-0.349-1.009-0.144l-1.525,0.959
	c-0.671-0.469-1.43-0.815-2.25-1.015l-0.298-1.793c-0.063-0.38-0.391-0.658-0.777-0.658h-1.069c-0.385,0-0.714,0.279-0.776,0.658
	l-0.3,1.793c-0.678,0.166-1.313,0.434-1.893,0.786l-1.45-1.035c-0.313-0.223-0.742-0.188-1.015,0.084l-0.755,0.756
	c-0.272,0.273-0.307,0.702-0.083,1.015l1.037,1.453c-0.349,0.575-0.614,1.207-0.78,1.879l-1.803,0.301
	c-0.379,0.063-0.658,0.391-0.658,0.777v1.068c0,0.386,0.279,0.714,0.658,0.777l1.803,0.301c0.136,0.553,0.334,1.08,0.597,1.57
	l-1.136,1.407c-0.242,0.299-0.232,0.729,0.024,1.018l0.709,0.798c0.257,0.289,0.684,0.349,1.009,0.144l1.547-0.972
	c0.655,0.448,1.395,0.777,2.19,0.972l0.3,1.793c0.061,0.38,0.391,0.658,0.776,0.658h1.069c0.386,0,0.714-0.279,0.777-0.658
	l0.299-1.793c0.669-0.164,1.296-0.427,1.871-0.773l1.511,1.079c0.312,0.224,0.742,0.189,1.014-0.084l0.755-0.755
	c0.272-0.272,0.309-0.701,0.083-1.014l-1.075-1.508c0.35-0.577,0.617-1.21,0.782-1.885l1.783-0.298
	c0.38-0.063,0.658-0.391,0.658-0.777v-1.068C521.001,511.081,520.723,510.752,520.343,510.689z M512.03,515.375
	c-1.864,0-3.375-1.512-3.375-3.375c0-1.863,1.511-3.375,3.375-3.375c1.863,0,3.375,1.511,3.375,3.375
	C515.405,513.863,513.893,515.375,512.03,515.375z"/>
<path id="settings_2_" fill="#8C50FF" d="M520.554,478.998l-1.783-0.297c-0.13-0.53-0.319-1.036-0.565-1.509l1.141-1.415
	c0.243-0.299,0.232-0.729-0.024-1.018l-0.709-0.798c-0.257-0.288-0.683-0.349-1.008-0.144l-1.525,0.959
	c-0.671-0.469-1.43-0.815-2.25-1.015l-0.298-1.793c-0.063-0.38-0.391-0.658-0.777-0.658h-1.069c-0.385,0-0.714,0.279-0.776,0.658
	l-0.3,1.793c-0.678,0.166-1.313,0.434-1.893,0.786l-1.45-1.035c-0.313-0.223-0.742-0.188-1.015,0.084l-0.755,0.756
	c-0.272,0.273-0.307,0.702-0.083,1.015l1.037,1.453c-0.349,0.575-0.614,1.207-0.78,1.879l-1.803,0.301
	c-0.379,0.063-0.658,0.391-0.658,0.777v1.068c0,0.386,0.279,0.714,0.658,0.777l1.803,0.301c0.136,0.553,0.334,1.08,0.597,1.57
	l-1.136,1.407c-0.242,0.299-0.232,0.729,0.024,1.018l0.709,0.798c0.257,0.289,0.684,0.349,1.009,0.144l1.547-0.972
	c0.655,0.448,1.395,0.777,2.19,0.972l0.3,1.793c0.061,0.38,0.391,0.658,0.776,0.658h1.069c0.386,0,0.714-0.279,0.777-0.658
	l0.299-1.793c0.669-0.164,1.296-0.427,1.871-0.773l1.511,1.079c0.312,0.224,0.742,0.189,1.014-0.084l0.755-0.755
	c0.272-0.272,0.309-0.701,0.083-1.014l-1.075-1.508c0.35-0.577,0.617-1.21,0.782-1.885l1.783-0.298
	c0.38-0.063,0.658-0.391,0.658-0.777v-1.068C521.212,479.389,520.935,479.06,520.554,478.998z M512.241,483.683
	c-1.864,0-3.375-1.512-3.375-3.375c0-1.864,1.511-3.375,3.375-3.375c1.863,0,3.375,1.511,3.375,3.375
	C515.616,482.172,514.104,483.683,512.241,483.683z"/>
</svg>
