<?xml version="1.0" encoding="utf-8"?>
<!-- Generator: Adobe Illustrator 17.0.0, SVG Export Plug-In . SVG Version: 6.00 Build 0)  -->
<!DOCTYPE svg PUBLIC "-//W3C//DTD SVG 1.1//EN" "http://www.w3.org/Graphics/SVG/1.1/DTD/svg11.dtd">
<svg version="1.1" id="Layer_1" xmlns="http://www.w3.org/2000/svg" xmlns:xlink="http://www.w3.org/1999/xlink" x="0px" y="0px"
	 width="15.459px" height="57.681px" viewBox="56.508 25.558 15.459 57.681" enable-background="new 56.508 25.558 15.459 57.681"
	 xml:space="preserve">
<path fill="#353535" d="M71.018,72.361h-0.407v-1.963c0-0.012-0.002-0.025-0.003-0.037c-0.001-0.078-0.026-0.154-0.079-0.215
	l-3.266-3.73c-0.001-0.001-0.002-0.001-0.003-0.002c-0.019-0.022-0.042-0.04-0.066-0.055c-0.007-0.005-0.014-0.009-0.022-0.013
	c-0.021-0.011-0.043-0.021-0.066-0.028c-0.006-0.002-0.012-0.004-0.018-0.006c-0.025-0.006-0.05-0.009-0.076-0.009h-8.026
	c-0.366,0-0.664,0.298-0.664,0.664v5.394h-0.407c-0.524,0-0.949,0.425-0.949,0.949v4.937c0,0.524,0.425,0.949,0.949,0.949h0.407
	v3.38c0,0.366,0.298,0.664,0.664,0.664h10.96c0.366,0,0.664-0.298,0.664-0.664v-3.379h0.407c0.524,0,0.949-0.425,0.949-0.949V73.31
	C71.967,72.785,71.542,72.361,71.018,72.361z M58.988,66.966h7.694v3.398c0,0.183,0.149,0.332,0.332,0.332h2.934v1.664h-10.96
	C58.988,72.361,58.988,66.966,58.988,66.966z M63.988,75.977c-0.824-0.287-1.361-0.743-1.361-1.464c0-0.847,0.706-1.494,1.876-1.494
	c0.559,0,0.971,0.118,1.266,0.25l-0.25,0.905c-0.199-0.096-0.552-0.236-1.038-0.236c-0.486,0-0.721,0.221-0.721,0.478
	c0,0.316,0.279,0.456,0.92,0.699c0.876,0.324,1.288,0.78,1.288,1.479c0,0.831-0.64,1.538-2.001,1.538
	c-0.567,0-1.126-0.148-1.405-0.302l0.228-0.927c0.302,0.155,0.765,0.309,1.244,0.309c0.515,0,0.787-0.213,0.787-0.537
	C64.819,76.366,64.584,76.19,63.988,75.977z M58.145,75.653c0-1.692,1.207-2.634,2.708-2.634c0.581,0,1.023,0.118,1.222,0.221
	l-0.228,0.89c-0.228-0.095-0.545-0.183-0.942-0.183c-0.89,0-1.582,0.537-1.582,1.64c0,0.993,0.588,1.619,1.589,1.619
	c0.338,0,0.714-0.074,0.934-0.162l0.169,0.876c-0.206,0.103-0.67,0.214-1.273,0.214C59.028,78.133,58.145,77.066,58.145,75.653z
	 M69.947,82.395h-10.96v-3.199h10.96V82.395z M69.205,78.059h-1.31L66.306,73.1h1.229l0.603,2.097
	c0.169,0.588,0.324,1.155,0.442,1.773h0.022c0.125-0.596,0.279-1.185,0.449-1.751l0.633-2.119h1.192L69.205,78.059z"/>
<path fill="#FFFFFF" d="M70.559,31.617h-0.407v-1.963c0-0.012-0.002-0.025-0.003-0.037c-0.001-0.078-0.026-0.154-0.079-0.215
	l-3.266-3.73c-0.001-0.001-0.002-0.001-0.003-0.002c-0.019-0.022-0.042-0.04-0.066-0.055c-0.007-0.005-0.014-0.009-0.022-0.013
	c-0.021-0.011-0.043-0.021-0.066-0.028c-0.006-0.002-0.012-0.004-0.018-0.006c-0.025-0.006-0.05-0.009-0.076-0.009h-8.026
	c-0.366,0-0.664,0.298-0.664,0.664v5.394h-0.407c-0.524,0-0.949,0.425-0.949,0.949v4.937c0,0.524,0.425,0.949,0.949,0.949h0.407
	v3.38c0,0.366,0.298,0.664,0.664,0.664h10.96c0.366,0,0.664-0.298,0.664-0.664v-3.379h0.407c0.524,0,0.949-0.425,0.949-0.949v-4.937
	C71.508,32.042,71.083,31.617,70.559,31.617z M58.528,26.222h7.694v3.398c0,0.183,0.149,0.332,0.332,0.332h2.934v1.664h-10.96
	C58.528,31.617,58.528,26.222,58.528,26.222z M63.528,35.233c-0.824-0.287-1.361-0.743-1.361-1.464c0-0.847,0.706-1.494,1.876-1.494
	c0.559,0,0.971,0.118,1.266,0.25l-0.25,0.905c-0.199-0.096-0.552-0.236-1.038-0.236c-0.486,0-0.721,0.221-0.721,0.478
	c0,0.317,0.279,0.456,0.92,0.699c0.876,0.324,1.288,0.78,1.288,1.479c0,0.831-0.64,1.538-2.001,1.538
	c-0.567,0-1.126-0.148-1.405-0.302l0.228-0.927c0.302,0.155,0.765,0.309,1.244,0.309c0.515,0,0.787-0.213,0.787-0.537
	C64.36,35.622,64.124,35.446,63.528,35.233z M57.685,34.909c0-1.692,1.207-2.634,2.708-2.634c0.581,0,1.023,0.118,1.222,0.221
	l-0.228,0.89c-0.228-0.095-0.545-0.183-0.942-0.183c-0.89,0-1.582,0.537-1.582,1.64c0,0.993,0.588,1.619,1.589,1.619
	c0.338,0,0.714-0.074,0.934-0.162l0.169,0.876c-0.206,0.103-0.67,0.214-1.273,0.214C58.568,37.389,57.685,36.322,57.685,34.909z
	 M69.488,41.652h-10.96v-3.199h10.96V41.652z M68.746,37.315h-1.31l-1.589-4.959h1.229l0.603,2.097
	c0.169,0.588,0.324,1.155,0.442,1.773h0.022c0.125-0.596,0.279-1.185,0.449-1.751l0.633-2.119h1.192L68.746,37.315z"/>
</svg>
