<?xml version="1.0" encoding="utf-8"?>
<!-- Generator: Adobe Illustrator 17.0.0, SVG Export Plug-In . SVG Version: 6.00 Build 0)  -->
<!DOCTYPE svg PUBLIC "-//W3C//DTD SVG 1.1//EN" "http://www.w3.org/Graphics/SVG/1.1/DTD/svg11.dtd">
<svg version="1.1" id="Layer_1" xmlns="http://www.w3.org/2000/svg" xmlns:xlink="http://www.w3.org/1999/xlink" x="0px" y="0px"
	 width="16px" height="58px" viewBox="42 0 16 58" enable-background="new 42 0 16 58" xml:space="preserve">
<path fill="#999999" d="M57.459,45.152L52.611,50l4.848,4.848c0.721,0.721,0.721,1.89,0,2.611C57.099,57.82,56.626,58,56.154,58
	c-0.473,0-0.945-0.18-1.305-0.541L50,52.611l-4.849,4.849C44.791,57.82,44.319,58,43.846,58c-0.472,0-0.944-0.18-1.305-0.541
	c-0.721-0.721-0.721-1.89,0-2.611L47.389,50l-4.848-4.848c-0.721-0.721-0.721-1.89,0-2.611c0.721-0.721,1.889-0.721,2.61,0L50,47.39
	l4.849-4.849c0.721-0.721,1.889-0.721,2.61,0C58.18,43.262,58.18,44.431,57.459,45.152z"/>
<path fill="#FFFFFF" d="M57.459,3.152L52.611,8l4.848,4.848c0.721,0.721,0.721,1.89,0,2.611C57.099,15.82,56.626,16,56.154,16
	c-0.473,0-0.945-0.18-1.305-0.541L50,10.611l-4.849,4.849C44.791,15.82,44.319,16,43.846,16c-0.472,0-0.944-0.18-1.305-0.541
	c-0.721-0.721-0.721-1.89,0-2.611L47.389,8l-4.848-4.848c-0.721-0.721-0.721-1.89,0-2.611c0.721-0.721,1.889-0.721,2.61,0L50,5.389
	l4.849-4.849c0.721-0.721,1.889-0.721,2.61,0C58.18,1.262,58.18,2.43,57.459,3.152z"/>
</svg>
