<?xml version="1.0" encoding="utf-8"?>
<!-- Generator: Adobe Illustrator 17.0.0, SVG Export Plug-In . SVG Version: 6.00 Build 0)  -->
<!DOCTYPE svg PUBLIC "-//W3C//DTD SVG 1.1//EN" "http://www.w3.org/Graphics/SVG/1.1/DTD/svg11.dtd">
<svg version="1.1" id="Camada_1" xmlns="http://www.w3.org/2000/svg" xmlns:xlink="http://www.w3.org/1999/xlink" x="0px" y="0px"
	 width="100px" height="100px" viewBox="0 0 100 100" enable-background="new 0 0 100 100" xml:space="preserve">
<rect fill="#C65909" width="100" height="100"/>
<g>
	<path fill="#FFFFFF" d="M73.132,41.489h-1.436v-6.93c0-0.043-0.007-0.087-0.012-0.131c-0.002-0.275-0.09-0.545-0.279-0.759
		L59.874,20.495c-0.004-0.004-0.007-0.005-0.009-0.008c-0.069-0.077-0.149-0.141-0.233-0.196c-0.025-0.017-0.05-0.031-0.077-0.046
		c-0.073-0.04-0.151-0.073-0.232-0.097c-0.022-0.006-0.041-0.015-0.063-0.021c-0.087-0.021-0.178-0.033-0.269-0.033H30.649
		c-1.294,0-2.346,1.053-2.346,2.346v19.048h-1.436c-1.851,0-3.352,1.501-3.352,3.352v17.433c0,1.851,1.501,3.352,3.352,3.352h1.436
		V77.56c0,1.293,1.051,2.346,2.346,2.346h38.702c1.293,0,2.346-1.053,2.346-2.346V65.627h1.436c1.851,0,3.352-1.502,3.352-3.352
		V44.841C76.485,42.989,74.984,41.489,73.132,41.489z M30.649,22.44h27.169v12c0,0.648,0.525,1.173,1.173,1.173h10.36v5.876H30.649
		C30.649,41.489,30.649,22.44,30.649,22.44z M55.364,44.49v17.514h-3.976V44.49H55.364z M36.054,47.764V44.49H48.76v2.287
		l-8.158,11.849v0.103h8.289v3.274H35.275v-2.131l8.341-12.004v-0.104H36.054z M69.351,76.925H30.649V65.627h38.702V76.925z
		 M69.759,53.975c-1.351,1.273-3.351,1.844-5.69,1.844c-0.521,0-0.987-0.025-1.351-0.077v6.262h-3.924v-17.28
		c1.221-0.209,2.935-0.364,5.352-0.364c2.443,0,4.183,0.467,5.354,1.403c1.116,0.883,1.871,2.339,1.871,4.054
		C71.37,51.532,70.799,52.987,69.759,53.975z"/>
	<path fill="#FFFFFF" d="M64.355,47.348c-0.807,0-1.353,0.078-1.637,0.157v5.17c0.337,0.078,0.753,0.104,1.325,0.104
		c2.104,0,3.404-1.066,3.404-2.858C67.447,48.31,66.329,47.348,64.355,47.348z"/>
</g>
</svg>
