<?xml version="1.0" encoding="utf-8"?>
<!-- Generator: Adobe Illustrator 17.0.0, SVG Export Plug-In . SVG Version: 6.00 Build 0)  -->
<!DOCTYPE svg PUBLIC "-//W3C//DTD SVG 1.1//EN" "http://www.w3.org/Graphics/SVG/1.1/DTD/svg11.dtd">
<svg version="1.1" id="Camada_1" xmlns="http://www.w3.org/2000/svg" xmlns:xlink="http://www.w3.org/1999/xlink" x="0px" y="0px"
	 width="100px" height="100px" viewBox="0 0 100 100" enable-background="new 0 0 100 100" xml:space="preserve">
<rect fill="#930000" width="100" height="100"/>
<g>
	<path fill="#FFFFFF" d="M38.132,50.704c0-1.531-1.063-2.444-2.938-2.444c-0.765,0-1.283,0.074-1.555,0.148v4.914
		c0.321,0.074,0.717,0.099,1.258,0.099C36.898,53.421,38.132,52.408,38.132,50.704z"/>
	<path fill="#FFFFFF" d="M49.739,48.309c-0.84,0-1.382,0.074-1.704,0.148v10.889c0.321,0.075,0.84,0.075,1.309,0.075
		c3.407,0.024,5.629-1.852,5.629-5.827C54.998,50.136,52.973,48.309,49.739,48.309z"/>
	<path fill="#FFFFFF" d="M71.981,41.912h-1.365v-6.585c0-0.041-0.007-0.082-0.012-0.124c-0.002-0.261-0.086-0.518-0.265-0.722
		L59.382,21.964c-0.003-0.003-0.007-0.004-0.009-0.008c-0.065-0.073-0.142-0.134-0.222-0.186c-0.024-0.016-0.048-0.03-0.073-0.043
		c-0.07-0.038-0.144-0.07-0.22-0.092c-0.021-0.006-0.039-0.014-0.06-0.02c-0.082-0.02-0.169-0.032-0.256-0.032h-26.93
		c-1.23,0-2.229,1-2.229,2.229v18.1h-1.365c-1.759,0-3.185,1.426-3.185,3.185v16.565c0,1.758,1.426,3.185,3.185,3.185h1.365v11.34
		c0,1.229,0.999,2.229,2.229,2.229h36.774c1.229,0,2.229-1,2.229-2.229V64.849h1.365c1.759,0,3.185-1.427,3.185-3.185V45.098
		C75.166,43.338,73.74,41.912,71.981,41.912z M31.613,23.813h25.816v11.403c0,0.616,0.499,1.114,1.114,1.114h9.844v5.583H31.613
		C31.613,41.913,31.613,23.813,31.613,23.813z M58.972,53.469c0,3.186-1.16,5.383-2.767,6.741c-1.751,1.456-4.419,2.147-7.676,2.147
		c-1.95,0-3.333-0.123-4.272-0.246V45.766c1.382-0.222,3.186-0.345,5.087-0.345c3.159,0,5.209,0.568,6.814,1.777
		C57.886,48.482,58.972,50.531,58.972,53.469z M29.91,62.186v-16.42c1.16-0.197,2.79-0.345,5.087-0.345
		c2.321,0,3.976,0.445,5.086,1.334c1.062,0.839,1.776,2.222,1.776,3.852s-0.542,3.013-1.53,3.95
		c-1.284,1.21-3.185,1.753-5.408,1.753c-0.493,0-0.939-0.025-1.283-0.074v5.95L29.91,62.186L29.91,62.186z M68.387,75.584H31.613
		V64.849h36.774V75.584z M71.617,48.63h-6.396v3.802h5.975v3.062h-5.975v6.691h-3.776V45.544h10.172V48.63z"/>
</g>
</svg>
