<?xml version="1.0" encoding="utf-8"?>
<!-- Generator: Adobe Illustrator 17.0.0, SVG Export Plug-In . SVG Version: 6.00 Build 0)  -->
<!DOCTYPE svg PUBLIC "-//W3C//DTD SVG 1.1//EN" "http://www.w3.org/Graphics/SVG/1.1/DTD/svg11.dtd">
<svg version="1.1" id="Camada_1" xmlns="http://www.w3.org/2000/svg" xmlns:xlink="http://www.w3.org/1999/xlink" x="0px" y="0px"
	 width="100px" height="100px" viewBox="0 0 100 100" enable-background="new 0 0 100 100" xml:space="preserve">
<rect fill="#057BDB" width="100" height="100"/>
<g>
	<path fill="#FFFFFF" d="M71.344,42.147h-1.325v-6.395c0-0.04-0.006-0.08-0.011-0.121c-0.002-0.254-0.083-0.503-0.257-0.701
		L59.11,22.777c-0.003-0.003-0.006-0.004-0.009-0.008c-0.063-0.071-0.137-0.13-0.215-0.181c-0.023-0.016-0.047-0.029-0.071-0.042
		c-0.068-0.037-0.14-0.068-0.214-0.09c-0.02-0.005-0.038-0.014-0.058-0.019c-0.08-0.019-0.164-0.031-0.248-0.031h-26.15
		c-1.194,0-2.164,0.971-2.164,2.164v17.575h-1.325c-1.708,0-3.093,1.385-3.093,3.093v16.085c0,1.708,1.385,3.093,3.093,3.093h1.325
		v11.011c0,1.193,0.97,2.164,2.164,2.164h35.709c1.193,0,2.164-0.971,2.164-2.164V64.418h1.325c1.708,0,3.093-1.386,3.093-3.093
		V45.24C74.437,43.531,73.052,42.147,71.344,42.147z M32.146,24.571h25.068v11.072c0,0.598,0.485,1.082,1.082,1.082h9.559v5.421
		H32.146C32.146,42.147,32.146,24.571,32.146,24.571z M58.112,52.403c0,4.92-2.983,7.902-7.368,7.902
		c-4.452,0-7.056-3.361-7.056-7.635c0-4.497,2.871-7.858,7.301-7.858C55.595,44.812,58.112,48.262,58.112,52.403z M28.883,59.994
		V45.258c1.247-0.201,2.871-0.312,4.586-0.312c2.849,0,4.696,0.512,6.143,1.603c1.558,1.158,2.538,3.006,2.538,5.654
		c0,2.872-1.046,4.853-2.493,6.076c-1.58,1.314-3.985,1.937-6.923,1.937C30.975,60.216,29.729,60.104,28.883,59.994z M67.854,74.843
		H32.146V64.418h35.709V74.843z M68.018,57.478c1.024,0,2.16-0.223,2.827-0.49l0.512,2.649c-0.623,0.312-2.026,0.645-3.851,0.645
		c-5.186,0-7.858-3.227-7.858-7.501c0-5.119,3.65-7.969,8.191-7.969c1.758,0,3.095,0.356,3.696,0.668l-0.69,2.693
		c-0.689-0.289-1.647-0.557-2.849-0.557c-2.693,0-4.786,1.625-4.786,4.964C63.21,55.586,64.991,57.478,68.018,57.478z"/>
	<path fill="#FFFFFF" d="M38.543,52.314c0.022-3.117-1.803-4.764-4.718-4.764c-0.757,0-1.248,0.067-1.537,0.134V57.5
		c0.289,0.067,0.757,0.067,1.18,0.067C36.54,57.589,38.543,55.897,38.543,52.314z"/>
	<path fill="#FFFFFF" d="M47.271,52.603c0,2.939,1.38,5.008,3.65,5.008c2.293,0,3.606-2.182,3.606-5.098
		c0-2.694-1.29-5.008-3.628-5.008C48.607,47.506,47.271,49.688,47.271,52.603z"/>
</g>
</svg>
