<?xml version="1.0" encoding="utf-8"?>
<!-- Generator: Adobe Illustrator 17.0.0, SVG Export Plug-In . SVG Version: 6.00 Build 0)  -->
<!DOCTYPE svg PUBLIC "-//W3C//DTD SVG 1.1//EN" "http://www.w3.org/Graphics/SVG/1.1/DTD/svg11.dtd">
<svg version="1.1" id="Camada_1" xmlns="http://www.w3.org/2000/svg" xmlns:xlink="http://www.w3.org/1999/xlink" x="0px" y="0px"
	 width="100px" height="100px" viewBox="0 0 100 100" enable-background="new 0 0 100 100" xml:space="preserve">
<rect fill="#9E9E9E" width="100" height="100"/>
<g>
	<path fill="#FFFFFF" d="M72.61,27.39h-3.768v-3.768c0-2.08-1.688-3.768-3.768-3.768H27.39c-2.08,0-3.768,1.688-3.768,3.768v45.219
		c0,2.08,1.688,3.768,3.768,3.768h3.768v3.768c0,2.08,1.688,3.768,3.768,3.768H72.61c2.08,0,3.768-1.688,3.768-3.768V31.159
		C76.378,29.079,74.69,27.39,72.61,27.39z M27.39,68.841V23.622h37.683v45.219H27.39z M72.61,76.378H34.927V72.61h30.146
		c2.08,0,3.768-1.688,3.768-3.768V31.159h3.768V76.378z"/>
	<path fill="#FFFFFF" d="M59.421,31.159H40.579c-1.04,0-1.884,0.844-1.884,1.884c0,1.04,0.844,1.884,1.884,1.884h18.841
		c1.036,0,1.884-0.844,1.884-1.884C61.305,32.003,60.457,31.159,59.421,31.159z"/>
	<path fill="#FFFFFF" d="M59.421,42.463H33.043c-1.04,0-1.884,0.844-1.884,1.884c0,1.04,0.844,1.884,1.884,1.884h26.378
		c1.036,0,1.884-0.844,1.884-1.884C61.305,43.308,60.457,42.463,59.421,42.463z"/>
	<path fill="#FFFFFF" d="M59.421,50H33.043c-1.04,0-1.884,0.844-1.884,1.884c0,1.036,0.844,1.884,1.884,1.884h26.378
		c1.036,0,1.884-0.848,1.884-1.884C61.305,50.844,60.457,50,59.421,50z"/>
	<path fill="#FFFFFF" d="M59.421,57.537H33.043c-1.04,0-1.884,0.848-1.884,1.884s0.844,1.884,1.884,1.884h26.378
		c1.036,0,1.884-0.848,1.884-1.884S60.457,57.537,59.421,57.537z"/>
</g>
</svg>
