<?xml version="1.0" encoding="utf-8"?>
<!-- Generator: Adobe Illustrator 17.0.0, SVG Export Plug-In . SVG Version: 6.00 Build 0)  -->
<!DOCTYPE svg PUBLIC "-//W3C//DTD SVG 1.1//EN" "http://www.w3.org/Graphics/SVG/1.1/DTD/svg11.dtd">
<svg version="1.1" id="Camada_1" xmlns="http://www.w3.org/2000/svg" xmlns:xlink="http://www.w3.org/1999/xlink" x="0px" y="0px"
	 width="100px" height="100px" viewBox="0 0 100 100" enable-background="new 0 0 100 100" xml:space="preserve">
<rect fill="#0F7C06" width="100" height="100"/>
<g>
	<path fill="#FFFFFF" d="M71.981,41.912h-1.365v-6.585c0-0.041-0.007-0.082-0.012-0.124c-0.002-0.261-0.086-0.518-0.265-0.722
		L59.382,21.964c-0.003-0.003-0.007-0.004-0.009-0.008c-0.065-0.073-0.142-0.134-0.222-0.186c-0.024-0.016-0.048-0.03-0.073-0.043
		c-0.07-0.038-0.144-0.07-0.22-0.092c-0.021-0.006-0.039-0.014-0.06-0.02c-0.082-0.02-0.169-0.032-0.256-0.032h-26.93
		c-1.23,0-2.229,1-2.229,2.229v18.1h-1.365c-1.759,0-3.185,1.426-3.185,3.185v16.565c0,1.758,1.426,3.185,3.185,3.185h1.365v11.34
		c0,1.229,0.999,2.229,2.229,2.229h36.774c1.229,0,2.229-1,2.229-2.229V64.849h1.365c1.759,0,3.185-1.427,3.185-3.185V45.098
		C75.166,43.338,73.74,41.912,71.981,41.912z M31.613,23.812h25.816v11.403c0,0.616,0.499,1.114,1.114,1.114h9.844v5.583H31.613
		C31.613,41.912,31.613,23.812,31.613,23.812z M56.621,58.146v3.232H45.987V44.356h3.865v13.789H56.621z M29.245,61.377l4.925-8.611
		l-4.748-8.41h4.42l1.49,3.106c0.505,1.035,0.884,1.869,1.289,2.828h0.05c0.405-1.086,0.733-1.844,1.162-2.828l1.44-3.106h4.395
		l-4.799,8.309l5.052,8.713h-4.445l-1.541-3.081c-0.631-1.187-1.035-2.071-1.515-3.056h-0.051c-0.354,0.985-0.782,1.869-1.313,3.056
		l-1.415,3.081L29.245,61.377L29.245,61.377z M68.387,75.584H31.613V64.849h36.774V75.584z M63.059,61.631
		c-1.944,0-3.864-0.506-4.823-1.036l0.782-3.182c1.036,0.53,2.627,1.061,4.269,1.061c1.769,0,2.702-0.732,2.702-1.844
		c0-1.061-0.808-1.667-2.854-2.4c-2.828-0.985-4.673-2.551-4.673-5.026c0-2.905,2.425-5.127,6.442-5.127
		c1.918,0,3.333,0.405,4.343,0.859l-0.859,3.107c-0.682-0.329-1.894-0.808-3.561-0.808s-2.474,0.757-2.474,1.642
		c0,1.086,0.959,1.566,3.156,2.4c3.005,1.111,4.42,2.676,4.42,5.075C69.93,59.206,67.733,61.631,63.059,61.631z"/>
</g>
</svg>
