<?xml version="1.0" encoding="utf-8"?>
<!-- Generator: Adobe Illustrator 17.0.0, SVG Export Plug-In . SVG Version: 6.00 Build 0)  -->
<!DOCTYPE svg PUBLIC "-//W3C//DTD SVG 1.1//EN" "http://www.w3.org/Graphics/SVG/1.1/DTD/svg11.dtd">
<svg version="1.1" id="Layer_1" xmlns="http://www.w3.org/2000/svg" xmlns:xlink="http://www.w3.org/1999/xlink" x="0px" y="0px"
	 width="18px" height="59px" viewBox="41 0 18 59" enable-background="new 41 0 18 59" xml:space="preserve">
<path fill="#FF5A5A" d="M58.392,44.546L52.937,50l5.454,5.454c0.811,0.811,0.811,2.126,0,2.937C57.986,58.798,57.455,59,56.923,59
	c-0.532,0-1.063-0.203-1.468-0.608L50,52.938l-5.455,5.455C44.14,58.798,43.609,59,43.077,59c-0.531,0-1.062-0.203-1.468-0.608
	c-0.811-0.811-0.811-2.126,0-2.937L47.062,50l-5.454-5.454c-0.811-0.811-0.811-2.126,0-2.938c0.811-0.811,2.125-0.811,2.937,0
	L50,47.063l5.455-5.455c0.811-0.811,2.126-0.811,2.937,0C59.203,42.42,59.203,43.735,58.392,44.546z"/>
<path fill="#D30000" d="M58.392,3.546L52.937,9l5.454,5.454c0.811,0.811,0.811,2.126,0,2.937C57.986,17.797,57.455,18,56.923,18
	c-0.532,0-1.063-0.203-1.468-0.608L50,11.937l-5.455,5.455C44.14,17.797,43.609,18,43.077,18c-0.531,0-1.062-0.203-1.468-0.608
	c-0.811-0.811-0.811-2.126,0-2.937L47.062,9l-5.454-5.454c-0.811-0.811-0.811-2.126,0-2.937c0.811-0.811,2.125-0.811,2.937,0
	L50,6.063l5.455-5.455c0.811-0.811,2.126-0.811,2.937,0C59.203,1.419,59.203,2.734,58.392,3.546z"/>
</svg>
