<?xml version="1.0" encoding="utf-8"?>
<!-- Generator: Adobe Illustrator 17.0.0, SVG Export Plug-In . SVG Version: 6.00 Build 0)  -->
<!DOCTYPE svg PUBLIC "-//W3C//DTD SVG 1.1//EN" "http://www.w3.org/Graphics/SVG/1.1/DTD/svg11.dtd">
<svg version="1.1" id="Camada_1" xmlns="http://www.w3.org/2000/svg" xmlns:xlink="http://www.w3.org/1999/xlink" x="0px" y="0px"
	 width="50.667px" height="18px" viewBox="16 16 50.667 18" enable-background="new 16 16 50.667 18" xml:space="preserve">
<g>
	<path fill="#A8A8A8" d="M23.875,16c0,2.502,0,5.002,0,7.875c-2.737,0-5.306,0-7.875,0c0-2.625,0-5.25,0-7.875
		C18.625,16,21.25,16,23.875,16z"/>
	<path fill="#A8A8A8" d="M34,23.875c-2.501,0-5.002,0-7.875,0c0-2.737,0-5.306,0-7.875c2.625,0,5.25,0,7.875,0
		C34,18.625,34,21.25,34,23.875z"/>
	<path fill="#A8A8A8" d="M16,26.125c2.501,0,5.002,0,7.875,0c0,2.737,0,5.306,0,7.875c-2.625,0-5.25,0-7.875,0
		C16,31.375,16,28.75,16,26.125z"/>
	<path fill="#A8A8A8" d="M26.125,34c0-2.501,0-5.002,0-7.875c2.737,0,5.306,0,7.875,0c0,2.625,0,5.25,0,7.875
		C31.375,34,28.75,34,26.125,34z"/>
</g>
<g>
	<path fill="#55F7FF" d="M56.542,16c0,2.502,0,5.002,0,7.875c-2.737,0-5.306,0-7.875,0c0-2.625,0-5.25,0-7.875
		C51.292,16,53.917,16,56.542,16z"/>
	<path fill="#55FFBE" d="M66.667,23.875c-2.501,0-5.002,0-7.875,0c0-2.737,0-5.306,0-7.875c2.625,0,5.25,0,7.875,0
		C66.667,18.625,66.667,21.25,66.667,23.875z"/>
	<path fill="#FCF85E" d="M48.667,26.125c2.501,0,5.002,0,7.875,0c0,2.737,0,5.306,0,7.875c-2.625,0-5.25,0-7.875,0
		C48.667,31.375,48.667,28.75,48.667,26.125z"/>
	<path fill="#FFC45C" d="M58.791,34c0-2.501,0-5.002,0-7.875c2.737,0,5.306,0,7.875,0c0,2.625,0,5.25,0,7.875
		C64.041,34,61.417,34,58.791,34z"/>
</g>
</svg>
