<?xml version="1.0" encoding="utf-8"?>
<!-- Generator: Adobe Illustrator 17.0.0, SVG Export Plug-In . SVG Version: 6.00 Build 0)  -->
<!DOCTYPE svg PUBLIC "-//W3C//DTD SVG 1.1//EN" "http://www.w3.org/Graphics/SVG/1.1/DTD/svg11.dtd">
<svg version="1.1" id="Layer_1" xmlns="http://www.w3.org/2000/svg" xmlns:xlink="http://www.w3.org/1999/xlink" x="0px" y="0px"
	 width="15px" height="57.344px" viewBox="55.379 -16.938 15 57.344" enable-background="new 55.379 -16.938 15 57.344"
	 xml:space="preserve">
<g>
	<path fill="#353535" d="M59.342,32.147c0-0.456-0.317-0.728-0.876-0.728c-0.228,0-0.382,0.022-0.463,0.044v1.464
		c0.096,0.022,0.214,0.029,0.375,0.029C58.974,32.957,59.342,32.655,59.342,32.147z"/>
	<path fill="#353535" d="M62.801,31.434c-0.25,0-0.412,0.022-0.508,0.044v3.245c0.096,0.022,0.25,0.022,0.39,0.022
		c1.015,0.007,1.678-0.552,1.678-1.737C64.368,31.978,63.765,31.434,62.801,31.434z"/>
	<path fill="#353535" d="M69.43,29.527h-0.407v-1.962c0-0.012-0.002-0.025-0.003-0.037c-0.001-0.078-0.026-0.154-0.079-0.215
		l-3.266-3.73c-0.001-0.001-0.002-0.001-0.003-0.002c-0.019-0.022-0.042-0.04-0.066-0.055c-0.007-0.005-0.014-0.009-0.022-0.013
		c-0.021-0.011-0.043-0.021-0.066-0.028c-0.006-0.002-0.012-0.004-0.018-0.006c-0.025-0.006-0.05-0.009-0.076-0.009h-8.026
		c-0.366,0-0.664,0.298-0.664,0.664v5.394h-0.407c-0.524,0-0.949,0.425-0.949,0.949v4.937c0,0.524,0.425,0.949,0.949,0.949h0.407
		v3.38c0,0.366,0.298,0.664,0.664,0.664h10.96c0.366,0,0.664-0.298,0.664-0.664v-3.379h0.407c0.524,0,0.949-0.425,0.949-0.949
		v-4.937C70.379,29.952,69.954,29.527,69.43,29.527z M57.399,24.133h7.694v3.398c0,0.183,0.149,0.332,0.332,0.332h2.934v1.664
		h-10.96V24.133z M65.553,32.971c0,0.949-0.346,1.604-0.825,2.009c-0.522,0.434-1.317,0.64-2.288,0.64
		c-0.581,0-0.993-0.037-1.273-0.073v-4.871c0.412-0.066,0.949-0.103,1.516-0.103c0.941,0,1.552,0.169,2.031,0.53
		C65.229,31.485,65.553,32.096,65.553,32.971z M56.892,35.569v-4.893c0.346-0.059,0.832-0.103,1.516-0.103
		c0.692,0,1.185,0.133,1.516,0.398c0.316,0.25,0.529,0.662,0.529,1.148c0,0.486-0.161,0.898-0.456,1.177
		c-0.383,0.361-0.949,0.523-1.612,0.523c-0.147,0-0.28-0.007-0.382-0.022v1.773L56.892,35.569L56.892,35.569z M68.359,39.562h-10.96
		v-3.2h10.96V39.562z M69.321,31.529h-1.906v1.133h1.781v0.912h-1.781v1.994H66.29v-4.96h3.031V31.529z"/>
</g>
<g>
	<path fill="#FFFFFF" d="M59.342-8.259c0-0.456-0.317-0.728-0.876-0.728c-0.228,0-0.382,0.022-0.463,0.044v1.464
		c0.096,0.022,0.214,0.029,0.375,0.029C58.974-7.449,59.342-7.751,59.342-8.259z"/>
	<path fill="#FFFFFF" d="M62.801-8.973c-0.25,0-0.412,0.022-0.508,0.044v3.245c0.096,0.022,0.25,0.022,0.39,0.022
		c1.015,0.007,1.678-0.552,1.678-1.737C64.368-8.428,63.765-8.973,62.801-8.973z"/>
	<path fill="#FFFFFF" d="M69.43-10.879h-0.407v-1.962c0-0.012-0.002-0.025-0.003-0.037c-0.001-0.078-0.026-0.154-0.079-0.215
		l-3.266-3.73c-0.001-0.001-0.002-0.001-0.003-0.002c-0.019-0.022-0.042-0.04-0.066-0.055c-0.007-0.005-0.014-0.009-0.022-0.013
		c-0.021-0.011-0.043-0.021-0.066-0.028c-0.006-0.002-0.012-0.004-0.018-0.006c-0.025-0.006-0.05-0.009-0.076-0.009h-8.026
		c-0.366,0-0.664,0.298-0.664,0.664v5.394h-0.407c-0.524,0-0.949,0.425-0.949,0.949v4.937c0,0.524,0.425,0.949,0.949,0.949h0.407
		v3.38C56.735-0.298,57.033,0,57.399,0h10.96c0.366,0,0.664-0.298,0.664-0.664v-3.379h0.407c0.524,0,0.949-0.425,0.949-0.949V-9.93
		C70.379-10.454,69.954-10.879,69.43-10.879z M57.399-16.273h7.694v3.398c0,0.183,0.149,0.332,0.332,0.332h2.934v1.664h-10.96
		V-16.273z M65.553-7.435c0,0.949-0.346,1.604-0.825,2.009c-0.522,0.434-1.317,0.64-2.288,0.64c-0.581,0-0.993-0.037-1.273-0.073
		v-4.871c0.412-0.066,0.949-0.103,1.516-0.103c0.941,0,1.552,0.169,2.031,0.53C65.229-8.921,65.553-8.311,65.553-7.435z
		 M56.892-4.837v-4.893c0.346-0.059,0.832-0.103,1.516-0.103c0.692,0,1.185,0.133,1.516,0.398c0.316,0.25,0.529,0.662,0.529,1.148
		c0,0.486-0.161,0.898-0.456,1.177c-0.383,0.361-0.949,0.523-1.612,0.523c-0.147,0-0.28-0.007-0.382-0.022v1.773L56.892-4.837
		L56.892-4.837z M68.359-0.844h-10.96v-3.2h10.96V-0.844z M69.321-8.877h-1.906v1.133h1.781v0.912h-1.781v1.994H66.29v-4.96h3.031
		V-8.877z"/>
</g>
</svg>
