<?xml version="1.0" encoding="utf-8"?>
<!-- Generator: Adobe Illustrator 17.0.0, SVG Export Plug-In . SVG Version: 6.00 Build 0)  -->
<!DOCTYPE svg PUBLIC "-//W3C//DTD SVG 1.1//EN" "http://www.w3.org/Graphics/SVG/1.1/DTD/svg11.dtd">
<svg version="1.1" id="Capa_1" xmlns="http://www.w3.org/2000/svg" xmlns:xlink="http://www.w3.org/1999/xlink" x="0px" y="0px"
	 width="46.344px" height="16.978px" viewBox="23 22.976 46.344 16.978" enable-background="new 23 22.976 46.344 16.978"
	 xml:space="preserve">
<g>
	<path fill="#A8A8A8" d="M23.721,39.954h16.557c0.222,0,0.427-0.09,0.566-0.248c0.12-0.136,0.173-0.31,0.151-0.487
		c-0.388-3.025-2.248-5.545-4.794-6.889c-1.077,1.077-2.562,1.743-4.201,1.743c-1.639,0-3.124-0.666-4.201-1.743
		c-2.546,1.344-4.406,3.865-4.794,6.889c-0.023,0.178,0.03,0.351,0.151,0.487C23.294,39.864,23.501,39.954,23.721,39.954z"/>
	<path fill="#A8A8A8" d="M28.269,31.676c0.096,0.101,0.198,0.198,0.302,0.291c0.913,0.816,2.112,1.317,3.428,1.317
		c1.317,0,2.517-0.501,3.428-1.317c0.105-0.093,0.206-0.19,0.302-0.291c0.096-0.101,0.19-0.205,0.278-0.314
		c0.715-0.885,1.145-2.009,1.145-3.232c0-2.842-2.312-5.155-5.155-5.155c-2.842,0-5.155,2.312-5.155,5.155
		c0,1.224,0.43,2.348,1.145,3.232C28.079,31.471,28.172,31.575,28.269,31.676z"/>
</g>
<g>
	<path fill="#FF6E6E" d="M52.065,39.954h16.557c0.222,0,0.427-0.09,0.566-0.248c0.12-0.136,0.173-0.31,0.151-0.487
		c-0.388-3.025-2.248-5.545-4.794-6.889c-1.077,1.077-2.562,1.743-4.201,1.743c-1.639,0-3.124-0.666-4.201-1.743
		c-2.546,1.344-4.406,3.865-4.794,6.889c-0.023,0.178,0.03,0.351,0.151,0.487C51.638,39.864,51.845,39.954,52.065,39.954z"/>
	<path fill="#FFC166" d="M56.613,31.676c0.096,0.101,0.198,0.198,0.302,0.291c0.913,0.816,2.112,1.317,3.428,1.317
		s2.517-0.501,3.428-1.317c0.105-0.093,0.206-0.19,0.302-0.291c0.096-0.101,0.19-0.205,0.278-0.314
		c0.715-0.885,1.145-2.009,1.145-3.232c0-2.842-2.312-5.155-5.155-5.155c-2.842,0-5.155,2.312-5.155,5.155
		c0,1.224,0.43,2.348,1.145,3.232C56.422,31.471,56.516,31.575,56.613,31.676z"/>
</g>
</svg>
