<?xml version="1.0" encoding="utf-8"?>
<!-- Generator: Adobe Illustrator 17.0.0, SVG Export Plug-In . SVG Version: 6.00 Build 0)  -->
<!DOCTYPE svg PUBLIC "-//W3C//DTD SVG 1.1//EN" "http://www.w3.org/Graphics/SVG/1.1/DTD/svg11.dtd">
<svg version="1.1" id="Capa_1" xmlns="http://www.w3.org/2000/svg" xmlns:xlink="http://www.w3.org/1999/xlink" x="0px" y="0px"
	 width="14.181px" height="55.233px" viewBox="0 -15.634 14.181 55.233" enable-background="new 0 -15.634 14.181 55.233"
	 xml:space="preserve">
<path opacity="0.4" fill="#FFFFFF" d="M14.169,13.297c0,0-0.093-1.087-0.807-1.684c-0.399-0.338-0.781-0.382-1.052-0.356v2.044
	h-0.489v-2.239c-0.146-0.317-0.438-0.807-0.902-0.991c-0.462-0.186-0.935-0.14-1.225-0.084v2.307H9.207v-2.59
	C9,9.455,8.628,9.158,7.976,9.119C7.624,9.098,7.31,9.24,7.062,9.396l-0.048,2.217h-0.49l0.015-4.025
	c1.58-0.495,2.735-1.953,2.735-3.698C9.273,1.741,7.531,0,5.383,0c-2.149,0-3.89,1.741-3.89,3.891c0,1.682,1.071,3.102,2.565,3.645
	v6.831c0,0-1.258-2.707-2.327-3.064C0.664,10.947,0,11.588,0,11.588s1.212,2.246,2.101,4.736c0.571,1.602,0.742,3.459,1.246,4.379
	c1.281,2.351,2.917,2.595,4.891,2.595c1.97,0,4.65,0.183,5.362-1.456C14.313,20.205,14.169,13.297,14.169,13.297z M3.167,3.889
	c0-1.223,0.992-2.216,2.216-2.216c1.223,0,2.216,0.993,2.216,2.216c0,0.797-0.424,1.488-1.053,1.879l0.005-1.433
	c0,0-0.287-1.492-1.211-1.492c-0.927,0-1.281,1.28-1.281,1.28v1.533C3.521,5.253,3.167,4.615,3.167,3.889z"/>
<path opacity="0.4" fill="#FFFFFF" d="M7.091-13.686L2.706-9.3c-0.315,0.315-0.826,0.315-1.141,0c-0.315-0.315-0.315-0.826,0-1.141
	l4.956-4.956c0.158-0.157,0.364-0.236,0.571-0.236c0.207,0,0.413,0.079,0.571,0.236l4.956,4.956c0.315,0.315,0.315,0.826,0,1.141
	c-0.315,0.315-0.826,0.315-1.141,0L7.091-13.686z M11.476-4.276c0.315,0.315,0.826,0.315,1.141,0c0.315-0.315,0.315-0.826,0-1.141
	l-4.956-4.956c-0.158-0.157-0.364-0.236-0.571-0.236c-0.207,0-0.413,0.079-0.571,0.236L1.564-5.417
	c-0.315,0.315-0.315,0.826,0,1.141c0.315,0.315,0.826,0.315,1.141,0l4.385-4.385L11.476-4.276z"/>
<path opacity="0.4" fill="#FFFFFF" d="M7.091,37.65l4.385-4.385c0.315-0.315,0.826-0.315,1.141,0c0.315,0.315,0.315,0.826,0,1.141
	l-4.956,4.956c-0.158,0.157-0.364,0.236-0.571,0.236S6.678,39.52,6.52,39.363l-4.956-4.956c-0.315-0.315-0.315-0.826,0-1.141
	c0.315-0.315,0.826-0.315,1.141,0L7.091,37.65z M2.706,28.241c-0.315-0.315-0.826-0.315-1.141,0c-0.315,0.315-0.315,0.826,0,1.141
	l4.956,4.956c0.158,0.157,0.364,0.236,0.571,0.236s0.413-0.079,0.571-0.236l4.956-4.956c0.315-0.315,0.315-0.826,0-1.141
	c-0.315-0.315-0.826-0.315-1.141,0l-4.385,4.385L2.706,28.241z"/>
</svg>
