<?xml version="1.0" encoding="utf-8"?>
<!-- Generator: Adobe Illustrator 17.0.0, SVG Export Plug-In . SVG Version: 6.00 Build 0)  -->
<!DOCTYPE svg PUBLIC "-//W3C//DTD SVG 1.1//EN" "http://www.w3.org/Graphics/SVG/1.1/DTD/svg11.dtd">
<svg version="1.1" id="Layer_1" xmlns="http://www.w3.org/2000/svg" xmlns:xlink="http://www.w3.org/1999/xlink" x="0px" y="0px"
	 width="15px" height="57.484px" viewBox="248.5 206.999 15 57.484" enable-background="new 248.5 206.999 15 57.484"
	 xml:space="preserve">
<g>
	<path fill="#353535" d="M259.75,255.108c0-3.106-2.519-5.625-5.625-5.625c-3.106,0-5.625,2.519-5.625,5.625
		s2.519,5.625,5.625,5.625C257.232,260.733,259.75,258.215,259.75,255.108z M254.125,259.327c-2.326,0-4.219-1.892-4.219-4.219
		s1.892-4.219,4.219-4.219s4.219,1.892,4.219,4.219S256.452,259.327,254.125,259.327z"/>
	<path fill="#353535" d="M263.088,262.083l-3.441-3.441c-0.513,0.797-1.191,1.476-1.989,1.989l3.441,3.441
		c0.549,0.549,1.44,0.549,1.989,0C263.638,263.523,263.638,262.632,263.088,262.083z"/>
</g>
<g>
	<path fill="#FFFFFF" d="M259.75,212.624c0-3.106-2.519-5.625-5.625-5.625c-3.106,0-5.625,2.519-5.625,5.625
		c0,3.106,2.519,5.625,5.625,5.625C257.232,218.249,259.75,215.73,259.75,212.624z M254.125,216.842
		c-2.326,0-4.219-1.892-4.219-4.219c0-2.326,1.892-4.219,4.219-4.219s4.219,1.892,4.219,4.219
		C258.344,214.95,256.452,216.842,254.125,216.842z"/>
	<path fill="#FFFFFF" d="M263.088,219.598l-3.441-3.441c-0.513,0.797-1.191,1.476-1.989,1.989l3.441,3.441
		c0.549,0.549,1.44,0.549,1.989,0C263.638,221.038,263.638,220.148,263.088,219.598z"/>
</g>
</svg>
