<?xml version="1.0" encoding="utf-8"?>
<!-- Generator: Adobe Illustrator 15.0.0, SVG Export Plug-In . SVG Version: 6.00 Build 0)  -->
<!DOCTYPE svg PUBLIC "-//W3C//DTD SVG 1.1//EN" "http://www.w3.org/Graphics/SVG/1.1/DTD/svg11.dtd">
<svg version="1.1" id="Layer_1" xmlns="http://www.w3.org/2000/svg" xmlns:xlink="http://www.w3.org/1999/xlink" x="0px" y="0px"
	 width="26px" height="26px" viewBox="0 0 26 26" enable-background="new 0 0 26 26" xml:space="preserve">
<g>
	<path d="M17.325,20.69h-8.65c-1.558,0-2.826-1.268-2.826-2.825v-9.73c0-1.558,1.268-2.826,2.826-2.826h8.65
		c1.558,0,2.825,1.268,2.825,2.826v9.73C20.15,19.423,18.883,20.69,17.325,20.69z M8.675,6.614c-0.839,0-1.521,0.683-1.521,1.521
		v9.73c0,0.838,0.683,1.521,1.521,1.521h8.65c0.839,0,1.521-0.684,1.521-1.521v-9.73c0-0.839-0.683-1.521-1.521-1.521H8.675z"/>
</g>
</svg>
