<?xml version="1.0" encoding="utf-8"?>
<!-- Generator: Adobe Illustrator 17.0.0, SVG Export Plug-In . SVG Version: 6.00 Build 0)  -->
<!DOCTYPE svg PUBLIC "-//W3C//DTD SVG 1.1//EN" "http://www.w3.org/Graphics/SVG/1.1/DTD/svg11.dtd">
<svg version="1.1" id="Capa_1" xmlns="http://www.w3.org/2000/svg" xmlns:xlink="http://www.w3.org/1999/xlink" x="0px" y="0px"
	 width="48px" height="15.272px" viewBox="6.5 5.515 48 15.272" enable-background="new 6.5 5.515 48 15.272" xml:space="preserve">
<path fill="#A8A8A8" d="M16.864,5.515c4.218,0,7.636,3.418,7.636,7.636s-3.418,7.636-7.636,7.636v-1.637
	c1.603,0,3.11-0.624,4.243-1.757c1.133-1.133,1.757-2.64,1.757-4.243c0-1.603-0.624-3.11-1.757-4.243
	c-1.133-1.133-2.64-1.757-4.243-1.757s-3.11,0.624-4.243,1.757c-0.872,0.872-1.441,1.964-1.659,3.151h3.174l-3.818,4.364L6.5,12.059
	h2.805C9.835,8.36,13.017,5.515,16.864,5.515z M20.136,12.061v2.182h-4.364V8.788h2.182v3.272L20.136,12.061L20.136,12.061z"/>
<g>
	<path fill="#4AFFFF" d="M46.864,5.515c4.218,0,7.636,3.418,7.636,7.636s-3.418,7.636-7.636,7.636v-1.637
		c1.603,0,3.11-0.624,4.243-1.757c1.133-1.133,1.757-2.64,1.757-4.243c0-1.603-0.624-3.11-1.757-4.243
		c-1.133-1.133-2.64-1.757-4.243-1.757s-3.11,0.624-4.243,1.757c-0.872,0.872-1.441,1.964-1.659,3.151h3.174l-3.818,4.364
		L36.5,12.059h2.805C39.835,8.36,43.017,5.515,46.864,5.515z"/>
	<polygon fill="#AB4BF7" points="50.151,12.061 50.151,14.242 45.787,14.242 45.787,8.788 47.968,8.788 47.968,12.06 50.151,12.06 	
		"/>
</g>
</svg>
