<?xml version="1.0" encoding="utf-8"?>
<!-- Generator: Adobe Illustrator 17.0.0, SVG Export Plug-In . SVG Version: 6.00 Build 0)  -->
<!DOCTYPE svg PUBLIC "-//W3C//DTD SVG 1.1//EN" "http://www.w3.org/Graphics/SVG/1.1/DTD/svg11.dtd">
<svg version="1.1" id="Capa_1" xmlns="http://www.w3.org/2000/svg" xmlns:xlink="http://www.w3.org/1999/xlink" x="0px" y="0px"
	 width="18px" height="49.032px" viewBox="247 239.55 18 49.032" enable-background="new 247 239.55 18 49.032"
	 xml:space="preserve">
<path fill="#666666" d="M259.92,284.738c-0.333-0.053-0.341-0.961-0.341-0.961s0.979-0.961,1.192-2.253
	c0.574,0,0.928-1.374,0.354-1.857c0.024-0.509,0.738-3.993-2.876-3.993c-3.613,0-2.9,3.485-2.876,3.993
	c-0.574,0.483-0.22,1.857,0.354,1.857c0.213,1.292,1.192,2.253,1.192,2.253s-0.008,0.908-0.341,0.961
	c-1.073,0.169-5.08,1.922-5.08,3.843h6.75H265C265,286.66,260.993,284.908,259.92,284.738z M253.048,285.045
	c0.775-0.477,1.716-0.919,2.488-1.185c-0.277-0.394-0.585-0.931-0.779-1.566c-0.271-0.221-0.491-0.537-0.633-0.925
	c-0.142-0.389-0.195-0.824-0.151-1.225c0.032-0.288,0.114-0.557,0.24-0.793c-0.076-0.819-0.13-2.426,0.922-3.599
	c0.408-0.455,0.924-0.782,1.542-0.979c-0.11-1.138-0.688-2.474-2.926-2.474c-3.613,0-2.9,3.485-2.876,3.993
	c-0.574,0.483-0.22,1.857,0.354,1.857c0.213,1.292,1.192,2.253,1.192,2.253s-0.008,0.908-0.341,0.961
	c-1.073,0.169-5.08,1.922-5.08,3.843h5.794C252.876,285.152,252.961,285.098,253.048,285.045z"/>
<path fill="#00C3FF" d="M259.92,252.863c-0.333-0.053-0.341-0.961-0.341-0.961s0.979-0.961,1.192-2.253
	c0.574,0,0.928-1.374,0.354-1.857c0.024-0.509,0.738-3.993-2.876-3.993c-3.613,0-2.9,3.485-2.876,3.993
	c-0.574,0.483-0.22,1.857,0.354,1.857c0.213,1.292,1.192,2.253,1.192,2.253s-0.008,0.908-0.341,0.961
	c-1.073,0.169-5.08,1.922-5.08,3.843h6.75H265C265,254.785,260.993,253.033,259.92,252.863z"/>
<path fill="#00FFE0" d="M253.048,253.17c0.775-0.477,1.716-0.919,2.488-1.185c-0.277-0.394-0.585-0.931-0.779-1.566
	c-0.271-0.221-0.491-0.537-0.633-0.925c-0.142-0.389-0.195-0.824-0.151-1.225c0.032-0.288,0.114-0.557,0.24-0.793
	c-0.076-0.819-0.13-2.426,0.922-3.599c0.408-0.455,0.924-0.782,1.542-0.979c-0.11-1.138-0.688-2.474-2.926-2.474
	c-3.613,0-2.9,3.485-2.876,3.993c-0.574,0.483-0.22,1.857,0.354,1.857c0.213,1.292,1.192,2.253,1.192,2.253
	s-0.008,0.908-0.341,0.961c-1.073,0.169-5.08,1.922-5.08,3.843h5.794C252.876,253.277,252.961,253.223,253.048,253.17z"/>
</svg>
